<mxfile host="app.diagrams.net" modified="2023-09-15T14:49:25.578Z" agent="Mozilla/5.0 (Windows NT 10.0; Win64; x64) AppleWebKit/537.36 (KHTML, like Gecko) Chrome/117.0.0.0 Safari/537.36" etag="wn2lAbakpMf3-XeqZ7Zq" version="21.7.5" type="device">
  <diagram name="Página-1" id="j1QV7ifzyS8fFgsNtDMu">
    <mxGraphModel dx="1709" dy="1676" grid="1" gridSize="10" guides="1" tooltips="1" connect="1" arrows="1" fold="1" page="1" pageScale="1" pageWidth="827" pageHeight="1169" math="0" shadow="0">
      <root>
        <mxCell id="0" />
        <mxCell id="1" parent="0" />
        <mxCell id="uurh9OioiEEZlYMZSR_d-1" value="ControlRegistroEvaluacion" style="ellipse;shape=umlControl;whiteSpace=wrap;html=1;" vertex="1" parent="1">
          <mxGeometry x="162.5" y="-460" width="160" height="140" as="geometry" />
        </mxCell>
        <mxCell id="uurh9OioiEEZlYMZSR_d-2" value="Formulario" style="shape=umlBoundary;whiteSpace=wrap;html=1;" vertex="1" parent="1">
          <mxGeometry x="-140" y="-275" width="100" height="80" as="geometry" />
        </mxCell>
        <mxCell id="uurh9OioiEEZlYMZSR_d-3" value="Restaurante" style="ellipse;shape=umlEntity;whiteSpace=wrap;html=1;" vertex="1" parent="1">
          <mxGeometry x="142.5" y="270" width="80" height="80" as="geometry" />
        </mxCell>
        <mxCell id="uurh9OioiEEZlYMZSR_d-4" value="Chef" style="ellipse;shape=umlEntity;whiteSpace=wrap;html=1;" vertex="1" parent="1">
          <mxGeometry x="380" y="270" width="80" height="80" as="geometry" />
        </mxCell>
        <mxCell id="uurh9OioiEEZlYMZSR_d-5" value="Evaluador" style="ellipse;shape=umlEntity;whiteSpace=wrap;html=1;" vertex="1" parent="1">
          <mxGeometry x="690" y="270" width="80" height="80" as="geometry" />
        </mxCell>
        <mxCell id="uurh9OioiEEZlYMZSR_d-11" value="nombre&lt;br&gt;foto&lt;br&gt;&lt;br&gt;" style="html=1;whiteSpace=wrap;" vertex="1" parent="1">
          <mxGeometry x="130" y="45" width="110" height="160" as="geometry" />
        </mxCell>
        <mxCell id="uurh9OioiEEZlYMZSR_d-12" value="ciudad&lt;br&gt;direccion&lt;br&gt;telefono&lt;br&gt;nombre&lt;br&gt;cantidad de evaluaciones&lt;br&gt;" style="html=1;whiteSpace=wrap;" vertex="1" parent="1">
          <mxGeometry x="100" y="360" width="165" height="160" as="geometry" />
        </mxCell>
        <mxCell id="uurh9OioiEEZlYMZSR_d-13" value="nombre&lt;br&gt;nacionalidad&amp;nbsp;&lt;br&gt;añosExperiencia" style="html=1;whiteSpace=wrap;" vertex="1" parent="1">
          <mxGeometry x="360" y="360" width="110" height="160" as="geometry" />
        </mxCell>
        <mxCell id="uurh9OioiEEZlYMZSR_d-14" value="Plato" style="ellipse;shape=umlEntity;whiteSpace=wrap;html=1;" vertex="1" parent="1">
          <mxGeometry x="145" y="-50" width="80" height="80" as="geometry" />
        </mxCell>
        <mxCell id="uurh9OioiEEZlYMZSR_d-15" value="nombre&lt;br&gt;apellido&lt;br&gt;correo&lt;br&gt;celular&lt;br&gt;" style="html=1;whiteSpace=wrap;" vertex="1" parent="1">
          <mxGeometry x="660" y="370" width="110" height="160" as="geometry" />
        </mxCell>
        <mxCell id="uurh9OioiEEZlYMZSR_d-16" value="Evaluacion" style="ellipse;shape=umlEntity;whiteSpace=wrap;html=1;" vertex="1" parent="1">
          <mxGeometry x="-140" y="260" width="80" height="80" as="geometry" />
        </mxCell>
        <mxCell id="uurh9OioiEEZlYMZSR_d-17" value="fecha&lt;br&gt;apreciación&lt;br&gt;" style="html=1;whiteSpace=wrap;" vertex="1" parent="1">
          <mxGeometry x="-140" y="360" width="110" height="160" as="geometry" />
        </mxCell>
        <mxCell id="uurh9OioiEEZlYMZSR_d-18" value="registrarEvaluacion()&lt;br&gt;listarRestaurantesPorCiudad()&lt;br&gt;validarCantidadEvaluacionesRestaurante()&lt;br&gt;listardatosRestaurante()&lt;br&gt;listarDatosChef()&lt;br&gt;listarPlatosRestaurante()&lt;br&gt;registrarCalificacionPlato()" style="html=1;whiteSpace=wrap;" vertex="1" parent="1">
          <mxGeometry x="115" y="-310" width="255" height="150" as="geometry" />
        </mxCell>
        <mxCell id="uurh9OioiEEZlYMZSR_d-19" value="CalificacionPlato" style="ellipse;shape=umlEntity;whiteSpace=wrap;html=1;" vertex="1" parent="1">
          <mxGeometry x="-135" y="45" width="80" height="80" as="geometry" />
        </mxCell>
        <mxCell id="uurh9OioiEEZlYMZSR_d-20" value="calificacón&lt;br&gt;explicación" style="html=1;whiteSpace=wrap;" vertex="1" parent="1">
          <mxGeometry x="-150" y="145" width="110" height="50" as="geometry" />
        </mxCell>
        <mxCell id="uurh9OioiEEZlYMZSR_d-22" value="" style="endArrow=none;html=1;edgeStyle=orthogonalEdgeStyle;rounded=0;exitX=1;exitY=0.5;exitDx=0;exitDy=0;entryX=0;entryY=0.5;entryDx=0;entryDy=0;" edge="1" parent="1" source="uurh9OioiEEZlYMZSR_d-16" target="uurh9OioiEEZlYMZSR_d-3">
          <mxGeometry relative="1" as="geometry">
            <mxPoint x="-30.000000000004547" y="250" as="sourcePoint" />
            <mxPoint x="172.5" y="260" as="targetPoint" />
          </mxGeometry>
        </mxCell>
        <mxCell id="uurh9OioiEEZlYMZSR_d-25" value="" style="endArrow=none;html=1;edgeStyle=orthogonalEdgeStyle;rounded=0;exitX=1;exitY=0.5;exitDx=0;exitDy=0;entryX=0;entryY=0.5;entryDx=0;entryDy=0;" edge="1" parent="1" source="uurh9OioiEEZlYMZSR_d-19" target="uurh9OioiEEZlYMZSR_d-14">
          <mxGeometry relative="1" as="geometry">
            <mxPoint x="-40.45000000000455" y="205" as="sourcePoint" />
            <mxPoint x="162.05" y="215" as="targetPoint" />
          </mxGeometry>
        </mxCell>
      </root>
    </mxGraphModel>
  </diagram>
</mxfile>
